Coordinates
version=1
nRows=16
nColumns=63
inDegrees=yes

Units are S.I. units (second, meters, Newtons, ...)
If the header above contains a line with 'inDegrees', this indicates whether rotational values are in degrees (yes) or radians (no).

endheader
time	pelvis_tilt	pelvis_list	pelvis_rotation	pelvis_tx	pelvis_ty	pelvis_tz	hip_flexion_r	hip_adduction_r	hip_rotation_r	knee_angle_r	knee_angle_r_beta	ankle_angle_r	subtalar_angle_r	mtp_angle_r	hip_flexion_l	hip_adduction_l	hip_rotation_l	knee_angle_l	knee_angle_l_beta	ankle_angle_l	subtalar_angle_l	mtp_angle_l	L5_S1_Flex_Ext	L5_S1_Lat_Bending	L5_S1_axial_rotation	L4_L5_Flex_Ext	L4_L5_Lat_Bending	L4_L5_axial_rotation	L3_L4_Flex_Ext	L3_L4_Lat_Bending	L3_L4_axial_rotation	L2_L3_Flex_Ext	L2_L3_Lat_Bending	L2_L3_axial_rotation	L1_L2_Flex_Ext	L1_L2_Lat_Bending	L1_L2_axial_rotation	L1_T12_Flex_Ext	L1_T12_Lat_Bending	L1_T12_axial_rotation	Abs_r3	Abs_r2	Abs_r1	Abs_t1	Abs_t2	neck_flexion	neck_bending	neck_rotation	arm_flex_r	arm_add_r	arm_rot_r	elbow_flex_r	pro_sup_r	wrist_flex_r	wrist_dev_r	arm_flex_l	arm_add_l	arm_rot_l	elbow_flex_l	pro_sup_l	wrist_flex_l	wrist_dev_l
1.186441	8.251265	4.930010	93.717784	0.108573	0.790612	0.837800	1.733889	4.478921	-7.916265	10.237707	0.178682	31.974007	16.856646	0.000000	-1.455188	-3.456338	13.057254	4.241110	0.074021	26.338047	-12.546949	0.000000	0.024820	0.882726	0.779374	0.046094	1.174025	0.828085	0.040777	2.146260	0.828085	0.028367	2.146260	0.681952	0.023048	1.800055	0.633241	0.014182	1.367342	0.584530	0.177289	9.985571	4.334644	0.000000	0.000000	4.817144	-3.813834	10.820974	6.661633	-22.526600	54.400465	28.223355	85.630894	-4.015155	7.373012	7.353640	-14.145831	64.036050	29.865395	88.805075	-1.819026	9.858046
1.203390	8.104472	4.983691	93.397873	0.108779	0.790787	0.837461	1.560184	4.298934	-7.586558	10.206053	0.178129	31.867701	16.847060	0.000000	-1.515773	-3.275203	12.913943	4.453068	0.077721	26.269926	-12.614537	0.000000	0.023096	0.871694	0.851093	0.042891	1.159353	0.904286	0.037944	2.119437	0.904286	0.026396	2.119437	0.744706	0.021447	1.777558	0.691513	0.013197	1.350254	0.638319	0.164972	9.860777	4.733521	0.000000	0.000000	4.870872	-3.859149	10.708674	6.393176	-22.523408	53.646433	28.257669	85.137615	-3.927154	7.482229	7.690408	-14.181807	65.534176	29.664884	88.834002	-2.207823	9.655004
1.220339	7.955262	5.035098	93.034313	0.109029	0.790959	0.837089	1.391748	4.114450	-7.205835	10.178259	0.177644	31.756908	16.823511	0.000000	-1.594596	-3.079882	12.899925	4.639290	0.080971	26.141947	-12.933419	0.000000	0.020996	0.860230	0.934281	0.038992	1.144106	0.992674	0.034495	2.091563	0.992674	0.023997	2.091563	0.817496	0.019497	1.754181	0.759104	0.011997	1.332496	0.700711	0.149974	9.731091	5.196193	0.000000	0.000000	4.932208	-3.935673	10.520230	5.976524	-22.479232	52.340366	28.331854	84.818874	-3.741983	7.628079	8.021484	-14.221275	66.910154	29.493475	88.864060	-2.545073	9.512775
1.237288	7.814517	5.091498	92.690823	0.109243	0.791143	0.836707	1.212508	3.942400	-6.799749	10.133344	0.176860	31.625828	16.735971	0.000000	-1.673922	-2.903264	12.681309	4.823418	0.084185	26.112622	-12.916106	0.000000	0.018763	0.849536	1.015054	0.034845	1.129883	1.078495	0.030826	2.065561	1.078495	0.021445	2.065561	0.888172	0.017424	1.732374	0.824731	0.010721	1.315931	0.761291	0.134025	9.610120	5.645426	0.000000	0.000000	4.969642	-4.054013	10.283331	5.517383	-22.437536	50.973200	28.396324	84.189187	-3.597626	7.712763	8.366671	-14.242402	68.271707	29.303170	88.891552	-2.856118	9.373333
1.254237	7.686038	5.147022	92.360713	0.109445	0.791317	0.836326	1.038023	3.786777	-6.378913	10.083549	0.175991	31.486232	16.606885	0.000000	-1.762850	-2.738914	12.504957	4.971599	0.086771	26.078551	-12.951790	0.000000	0.016280	0.840072	1.093885	0.030234	1.117296	1.162253	0.026747	2.042551	1.162253	0.018606	2.042551	0.957150	0.015118	1.713075	0.888782	0.009302	1.301271	0.820414	0.116287	9.503061	6.083863	0.000000	0.000000	5.022539	-4.184512	10.033181	4.997592	-22.379897	49.363217	28.476309	83.648647	-3.483291	7.778660	8.682766	-14.254411	69.422020	29.127565	88.911783	-3.079278	9.304027
1.271186	7.580060	5.197987	92.069862	0.109617	0.791468	0.835950	0.872165	3.662691	-5.949415	10.020515	0.174891	31.340235	16.414906	0.000000	-1.854322	-2.600304	12.393212	5.079611	0.088656	26.041973	-13.046231	0.000000	0.014085	0.832741	1.159609	0.026157	1.107546	1.232085	0.023140	2.024728	1.232085	0.016097	2.024728	1.014658	0.013079	1.698126	0.942183	0.008048	1.289917	0.869707	0.100605	9.420138	6.449399	0.000000	0.000000	5.087415	-4.293329	9.825602	4.486281	-22.317603	47.728415	28.559957	83.188072	-3.451738	7.805374	8.897552	-14.266169	70.149458	29.009081	88.928969	-3.212185	9.342636
1.288136	7.499007	5.234878	91.822925	0.109762	0.791581	0.835611	0.735857	3.571198	-5.551206	9.954249	0.173734	31.205956	16.212180	0.000000	-1.946515	-2.487936	12.414865	5.124799	0.089445	25.969693	-13.310805	0.000000	0.013034	0.827450	1.213799	0.024205	1.100508	1.289661	0.021414	2.011861	1.289661	0.014897	2.011861	1.062074	0.012103	1.687336	0.986212	0.007448	1.281720	0.910349	0.093100	9.360277	6.750786	0.000000	0.000000	5.183466	-4.342429	9.663312	3.980386	-22.251759	46.035550	28.666778	82.927115	-3.479136	7.817159	9.023817	-14.276115	70.484728	28.940505	88.939182	-3.209173	9.487593
1.305085	7.453295	5.272411	91.628326	0.109876	0.791689	0.835371	0.616607	3.533244	-5.125928	9.873456	0.172324	31.072567	15.908805	0.000000	-2.036226	-2.422460	12.337767	5.132726	0.089583	25.960700	-13.411144	0.000000	0.010796	0.825103	1.257406	0.020049	1.097388	1.335994	0.017736	2.006157	1.335994	0.012339	2.006157	1.100230	0.010025	1.682551	1.021642	0.006169	1.278085	0.943055	0.077114	9.333735	6.993315	0.000000	0.000000	5.289210	-4.319677	9.514182	3.530880	-22.215602	44.521272	28.790792	82.660477	-3.628699	7.760383	9.134291	-14.272581	70.702007	28.860618	88.940204	-3.149070	9.635647
1.322034	7.448709	5.289009	91.499881	0.109963	0.791747	0.835262	0.550398	3.550409	-4.736884	9.794376	0.170944	30.963218	15.575814	0.000000	-2.085335	-2.408127	12.168095	5.125899	0.089464	26.027808	-13.352688	0.000000	0.009649	0.825893	1.283839	0.017919	1.098437	1.364078	0.015852	2.008075	1.364078	0.011028	2.008075	1.123359	0.008960	1.684160	1.043119	0.005513	1.279308	0.962879	0.068921	9.342662	7.140325	0.000000	0.000000	5.437125	-4.226302	9.411515	3.144375	-22.207472	43.167645	28.960166	82.533197	-3.890563	7.673639	9.163712	-14.268301	70.608787	28.815531	88.935669	-3.018091	9.828532
1.338983	7.485729	5.277027	91.432353	0.110047	0.791738	0.835298	0.556073	3.618809	-4.429042	9.734829	0.169905	30.898099	15.276635	0.000000	-2.085323	-2.441771	11.990715	5.108057	0.089152	26.132697	-13.271564	0.000000	0.010323	0.829484	1.292981	0.019172	1.103213	1.373792	0.016960	2.016806	1.373792	0.011799	2.016806	1.131358	0.009586	1.691483	1.050547	0.005899	1.284870	0.969736	0.073740	9.383285	7.191171	0.000000	0.000000	5.652094	-4.062448	9.366737	2.828450	-22.223200	42.002827	29.178964	82.581180	-4.238215	7.567669	9.101473	-14.269715	70.176341	28.824025	88.926308	-2.769779	10.110186
1.355932	7.574615	5.249953	91.432847	0.110107	0.791684	0.835494	0.616666	3.754741	-4.161266	9.687474	0.169078	30.857744	14.940693	0.000000	-2.051273	-2.537642	11.796530	5.076852	0.088608	26.266489	-13.130313	0.000000	0.010949	0.836961	1.286990	0.020333	1.113159	1.367427	0.017988	2.034988	1.367427	0.012514	2.034988	1.126116	0.010167	1.706732	1.045679	0.006256	1.296453	0.965242	0.078208	9.467876	7.157852	0.000000	0.000000	5.956468	-3.874245	9.300667	2.578353	-22.288255	41.039147	29.454567	82.706129	-4.647837	7.425826	8.998311	-14.267974	69.587021	28.850087	88.911340	-2.469042	10.388356
1.372881	7.704336	5.197260	91.504346	0.110144	0.791562	0.835838	0.750152	3.934483	-4.031850	9.677916	0.168911	30.863648	14.678049	0.000000	-1.967106	-2.680448	11.615520	5.050647	0.088150	26.410004	-12.949158	0.000000	0.013351	0.847244	1.264134	0.024793	1.126834	1.343143	0.021934	2.059989	1.343143	0.015258	2.059989	1.106117	0.012397	1.727700	1.027109	0.007629	1.312381	0.948101	0.095362	9.584193	7.030735	0.000000	0.000000	6.383209	-3.685228	9.243763	2.392739	-22.387505	40.246432	29.776977	82.986083	-5.072121	7.285758	8.822045	-14.276343	68.738436	28.939636	88.893628	-2.108747	10.742890
1.389831	7.879065	5.117085	91.631303	0.110152	0.791371	0.836300	0.962223	4.157967	-4.034426	9.726010	0.169751	30.914806	14.483804	0.000000	-1.843706	-2.874282	11.449572	5.015352	0.087534	26.539667	-12.720325	0.000000	0.018698	0.861903	1.224202	0.034724	1.146331	1.300714	0.030719	2.095630	1.300714	0.021370	2.095630	1.071176	0.017363	1.757592	0.994664	0.010684	1.335087	0.918151	0.133557	9.750016	6.808643	0.000000	0.000000	6.953941	-3.498888	9.262792	2.287723	-22.531649	39.693841	30.137790	83.425254	-5.501843	7.139577	8.571567	-14.290272	67.648808	29.082669	88.872230	-1.691725	11.143538
1.406780	8.073825	5.016558	91.784475	0.110163	0.791135	0.836856	1.229080	4.400595	-4.103468	9.811718	0.171247	30.993907	14.329697	0.000000	-1.690821	-3.085603	11.385066	4.985338	0.087011	26.604127	-12.607027	0.000000	0.026781	0.878534	1.181302	0.049734	1.168450	1.255134	0.043998	2.136067	1.255134	0.030608	2.136067	1.033639	0.024869	1.791506	0.959808	0.015303	1.360849	0.885977	0.191292	9.938148	6.570049	0.000000	0.000000	7.693034	-3.348324	9.306130	2.247061	-22.719059	39.378598	30.514427	83.948781	-5.889014	6.999542	8.315337	-14.310506	66.599955	29.260070	88.849294	-1.445871	11.515217
1.423729	8.277853	4.923678	91.988479	0.110132	0.790895	0.837484	1.516711	4.648662	-4.274212	9.942429	0.173528	31.100740	14.222796	0.000000	-1.531543	-3.309205	11.347304	4.968795	0.086722	26.650680	-12.452915	0.000000	0.033912	0.896611	1.128299	0.062978	1.192493	1.198817	0.055714	2.180020	1.198817	0.038758	2.180020	0.987261	0.031491	1.828369	0.916743	0.019377	1.388850	0.846224	0.242230	10.142643	6.275258	0.000000	0.000000	8.595362	-3.190031	9.438504	2.291250	-22.937497	39.351192	30.882877	84.474455	-6.239967	6.849174	8.069446	-14.340819	65.641727	29.456770	88.826270	-1.407408	11.795463
1.440678	8.476826	4.844858	92.231996	0.110067	0.790679	0.838101	1.785191	4.891121	-4.508919	10.069028	0.175738	31.214199	14.152381	0.000000	-1.376500	-3.532177	11.298569	4.968347	0.086714	26.709926	-12.202492	0.000000	0.041064	0.914662	1.068637	0.076261	1.216501	1.135427	0.067465	2.223910	1.135427	0.046933	2.223910	0.935057	0.038132	1.865179	0.868267	0.023464	1.416812	0.801478	0.293319	10.346842	5.943438	0.000000	0.000000	9.627625	-3.002161	9.662185	2.407895	-23.168829	39.619972	31.210079	84.887231	-6.542604	6.687472	7.849365	-14.381086	64.863218	29.655156	88.810489	-1.625122	11.946045
